<ttFont>
<head>
    <!-- Most of this table will be recalculated by the compiler -->
    <tableVersion value="1.0"/>
    <fontRevision value="1.004"/>
    <checkSumAdjustment value="0xb5861c40"/>
    <magicNumber value="0x5f0f3cf5"/>
    <flags value="00000000 00000011"/>
    <unitsPerEm value="1000"/>
    <created value="Tue Feb 26 02:06:57 2019"/>
    <modified value="Tue Feb 26 10:07:01 2019"/>
    <xMin value="-178"/>
    <yMin value="-250"/>
    <xMax value="1135"/>
    <yMax value="908"/>
    <macStyle value="00000000 00000000"/>
    <lowestRecPPEM value="3"/>
    <fontDirectionHint value="2"/>
    <indexToLocFormat value="0"/>
    <glyphDataFormat value="0"/>
  </head>
              <CharString index="0">
                0 0 0</CharString>
              <CharString index="1">
                2 blend
                rmoveto
              </CharString>
              <CharString index="2">
                -107 callsubr
                1 blend
              </CharString>
              <CharString index="3">
                2 -2 3</CharString>
              <CharString index="4">
                -1 1 -2</CharString>
              <CharString index="5">
                -105 callsubr
                hlineto
              </CharString>
              <CharString index="6">
                2 blend
                rlineto
              </CharString>
              <CharString index="7">
                1 -1 3</CharString>
              <CharString index="8">
                -107 callsubr
                -101 callsubr
              </CharString>
              <CharString index="9">
                -107 callsubr
                -106 callsubr
              </CharString>
              <CharString index="10">
                -1 0 0 0</CharString>
              <CharString index="11">
                -2 0 0 0</CharString>
              <CharString index="12">
                1 0 0 0</CharString>
              <CharString index="13">
                8 0 0 0</CharString>
              <CharString index="14">
                -10 0 0 0</CharString>
              <CharString index="15">
                3 0 0 0</CharString>
              <CharString index="16">
                -8 0 0 0</CharString>
              <CharString index="17">
                13 0 0 0</CharString>
              <CharString index="18">
                -11 0 0 0</CharString>
              <CharString index="19">
                -14 0 0 0</CharString>
              <CharString index="20">
                -72 callsubr
                rlineto
              </CharString>
              <CharString index="21">
                -107 callsubr
                4 blend
                rlineto
              </CharString>
              <CharString index="22">
                -107 callsubr
                3 blend
                hlineto
              </CharString>
              <CharString index="23">
                19 0 0 0</CharString>
              <CharString index="24">
                4 -4 6 1 blend
              </CharString>
              <CharString index="25">
                -19 0 0 0</CharString>
              <CharString index="26">
                -20 0 0 0</CharString>
              <CharString index="27">
                15 0 0 0</CharString>
              <CharString index="28">
                -107 callsubr
                -94 callsubr
                0 -101 callsubr
              </CharString>
              <CharString index="29">
                -107 callsubr
                4 blend
                vlineto
              </CharString>
              <CharString index="30">
                -107 callsubr
                6 blend
                rlineto
              </CharString>
              <CharString index="31">
                23 0 0 0</CharString>
              <CharString index="32">
                -107 callsubr
                8 blend
                hvcurveto
              </CharString>
              <CharString index="33">
                -40 -69 callsubr
              </CharString>
              <CharString index="34">
                -3 1 -1 1</CharString>
              <CharString index="35">
                -107 callsubr
                0 2 blend
              </CharString>
              <CharString index="36">
                9 -9 15 2 blend
                rmoveto
              </CharString>
              <CharString index="37">
                4 -4 6 2 blend
                rmoveto
              </CharString>
              <CharString index="38">
                -20 19 -9 9 -15</CharString>
              <CharString index="39">
                -4 4 -6 1 blend
                hlineto
              </CharString>
              <CharString index="40">
                -107 callsubr
                24 -16 9 -9 15</CharString>
              <CharString index="41">
                -9 9 -15 2 blend
                rmoveto
              </CharString>
              <CharString index="42">
                -49 callsubr
                140 55 -10 -59 callsubr
                -16 29 -61 callsubr
                3 -8 -78 callsubr
              </CharString>
              <CharString index="43">
                0 0 0 0 1 0 0 0</CharString>
              <CharString index="44">
                -62 callsubr
                130 -15</CharString>
              <CharString index="45">
                -54 callsubr
                3 blend
                vlineto
              </CharString>
              <CharString index="46">
                -107 callsubr
                -28 19 -9 9 -15</CharString>
              <CharString index="47">
                -19 9 -9 15 3 blend
                vlineto
              </CharString>
              <CharString index="48">
                20 -19 9 -9 15</CharString>
              <CharString index="49">
                -53 callsubr
                40</CharString>
              <CharString index="50">
                -104 callsubr
                1 blend
                hlineto
              </CharString>
              <CharString index="51">
                -8 8 -12 1 blend
              </CharString>
              <CharString index="52">
                -102 callsubr
                -3 103 -95 callsubr
                0 -1</CharString>
              <CharString index="53">
                -107 callsubr
                -59 callsubr
              </CharString>
              <CharString index="54">
                -107 callsubr
                -91 callsubr
                0 -101 callsubr
              </CharString>
              <CharString index="55">
                -102 callsubr
                3 -103 -97 callsubr
                0 1</CharString>
              <CharString index="56">
                -15 15 -25 1 blend
                hlineto
              </CharString>
              <CharString index="57">
                -63 56 -18 18 -30</CharString>
              <CharString index="58">
                -48 callsubr
                -560 -50 callsubr
                1 blend
                vmoveto
                -130 -15 13 -21 -79 callsubr
                -40</CharString>
              <CharString index="59">
                -106 callsubr
                10 55 -140 -40 -3 8 -61 callsubr
                16 -29 -54 callsubr
                4 blend
                hlineto
                130 -15 -13 21 -79 callsubr
              </CharString>
        <CharString name=".notdef">
          80 0 0 -83 callsubr
          hmoveto
          60 -35 20 -51 callsubr
          420 670 35 -20 7 -7 13 7 -18 -99 callsubr
          -60 35 -20 15 -15 25 1 blend
          hlineto
          -420 -670 -35 20 -7 7 -13 -7 18 -99 callsubr
          480 0 0 -56 callsubr
          hmoveto
          -420 670 -35 20 -7 7 -13 7 -18 -99 callsubr
          -60 35 -20 15 -15 25 1 blend
          hlineto
          420 -670 35 -20 7 -7 13 -7 18 -99 callsubr
          60 -35 20 -15 15 -25 1 blend
          hlineto
          -420 50 -35 10 4 -4 6 -28 10 -98 callsubr
          570 360 -570 -360 63 -38 -107 callsubr
          70 -81 callsubr
          -63 38 -107 callsubr
          -70 20 -78 callsubr
          -60 -50 35 -93 callsubr
          28 -10 -98 callsubr
          480 670 7 -18 -105 callsubr
          -480 -670 -7 18 -102 callsubr
        </CharString>
        <CharString name="B">
          140 310 27 -42 -107 callsubr
          0 5 -70 callsubr
          -105 1 -2 -103 callsubr
          1 blend
          0 -104 -3 -101 0 -1 -2 2 -2 -95 callsubr
          0 -1 -2 -103 callsubr
          3 blend
          vhcurveto
          96 -62 104 -55 callsubr
          2 1 -1 2 2 blend
          0 104 118 0 1 2 -2 2 26 -12 1 -1 2 2 blend
          vvcurveto
          35 -28 -15 -105 callsubr
          vlineto
          105 9 2 -103 callsubr
          1 blend
          0 104 3 101 0 2 -2 2 -2 -1 -107 callsubr
          0 1 2 -103 callsubr
          3 blend
          vhcurveto
          -96 62 -104 -52 callsubr
          -2 1 -1 2 2 blend
          0 -104 -103 0 -2 2 -2 2 -1 -2 1 -1 2 2 blend
          vvcurveto
          -50 -7 29 -105 callsubr
          vlineto
          35 305 -27 46 -107 callsubr
          35 -42 5 -5 9 -65 callsubr
          10 268 -3 -94 callsubr
          48 -28 13 -13 21 -106 callsubr
          102 -1 18 -102 callsubr
          140 61 -47 -93 -88 -63 -49 -130 22 -56 -107 callsubr
          8 -82 callsubr
          -13 10 -2 2 -2 -9 3 -4 4 -7 -14 5 -5 5 -8 -12 -90 callsubr
          -8 7 -2 2 -4 5 52 -75 callsubr
          -110 -46 134 -22 -8 -67 callsubr
          -3 -14 -85 callsubr
          189 75 92 91 86 -64 70 -156 13 -33 83 -107 callsubr
          0 -19 0 0 0 -15 12 -107 callsubr
          11 -10 -107 callsubr
          14 -80 callsubr
          -4 -8 -2 2 -4 6 -10 -1 1 -1 -6 -29 -5 5 -9 -11 -73 callsubr
          9 blend
          hvcurveto
          0 -9 -10 -64 callsubr
          0 -101 callsubr
          133 16 54 69 78 8 40 6 -6 10 -5 4 1 -1 1 10 -11 -100 callsubr
          6 -8 0 0 2 6 -5 -1 1 -3 5 blend
          vvcurveto
          96 -80 68 -137 -1 -89 callsubr
          14 -76 callsubr
          -5 -96 callsubr
          -9 -45 -107 callsubr
          4 blend
          vhcurveto
          -148 -46 119 33 -20 -67 callsubr
          -15 -1 -85 callsubr
          103 53 -32 -92 -92 -53 -39 -123 42 -34 -107 callsubr
          -3 -23 -107 callsubr
          -25 -5 -3 3 -4 16 25 -4 4 -7 -3 18 -3 3 -7 -22 -84 callsubr
          -25 -3 -3 3 -3 -13 53 -75 callsubr
          -99 -46 11 -88 callsubr
          26 -10 8 -8 12 2 blend
          hlineto
        </CharString>
        <CharString name="W">
          848 615 0 54 -4 4 -6 35 -37 -71 callsubr
          103 15 5 -16 -58 callsubr
          -228 -74 callsubr
          0 23 -62 callsubr
          105 -15 1 -16 -79 callsubr
          20 -6 9 -102 callsubr
          -331 -20 20 4 -4 5 1 blend
          hmoveto
          122 15 -13 2 -58 callsubr
          -270 -74 callsubr
          42 -41 0 0 1 20 -60 callsubr
          128 -15 -23 -8 -4 4 -6 8 -87 callsubr
          20 -6 47 4 -4 5 1 blend
          hlineto
          -352 -17 -50 0 0 1 1 blend
          hmoveto
          120 15 -9 22 -58 callsubr
          -270 -74 callsubr
          42 -56 -63 callsubr
          -27 15 -79 callsubr
          20 -6 19 -102 callsubr
          136 -506 26 -25 3 -3 6 -128 -72 -66 callsubr
          28 0 -151 561 -12 46 -3 3 -6 6 147 -107 callsubr
          -26 25 -107 callsubr
          94 -56 -86 callsubr
          -93 63 -117 -102 callsubr
          195 -677 -10 -92 callsubr
          -7 25 -99 callsubr
          39 -19 81 -68 callsubr
          180 571 -32 0 192 -571 5 -21 13 -13 22 67 -40 44 -44 76 24 -15 -9 9 -16 -9 -45 -44 44 -76 -9 -47 -107 callsubr
          -58 85 -77 callsubr
          40 -20 80 -68 callsubr
          182 677 -5 20 -2 2 -3 7 -25 -99 callsubr
          -50 24 -19 4 -4 5 1 blend
          hlineto
          -155 -561 25 0 -181 561 -10 -32 6 -6 11 -102 -91 0 0 0 -11 46 -4 4 -7 9 147 -107 callsubr
          -8 45 -107 callsubr
          93 -56 -77 callsubr
          -32 18 -97 -57 callsubr
          -187 -561 -4 2 -100 callsubr
          -100 -91 0 0 0 -101 callsubr
        </CharString>
</ttFont>
